<?xml version="1.0" encoding="UTF-8" standalone="no"?><svg xmlns="http://www.w3.org/2000/svg" xmlns:xlink="http://www.w3.org/1999/xlink" contentStyleType="text/css" height="747px" preserveAspectRatio="none" style="width:730px;height:747px;background:#00000000;" version="1.1" viewBox="0 0 730 747" width="730px" zoomAndPan="magnify"><defs/><g><!--MD5=[3fd616f346a44cd59a91eb10b19e157c]
class User--><g id="elem_User"><rect codeLine="3" fill="#F1F1F1" height="163.418" id="User" rx="2.5" ry="2.5" style="stroke:#181818;stroke-width:0.5;" width="209" x="7" y="404"/><ellipse cx="91.75" cy="420" fill="#ADD1B2" rx="11" ry="11" style="stroke:#181818;stroke-width:1.0;"/><path d="M94.2231,426.1431 Q93.6421,426.4419 93.0029,426.5913 Q92.3638,426.7407 91.6582,426.7407 Q89.1514,426.7407 87.8315,425.0889 Q86.5117,423.437 86.5117,420.3159 Q86.5117,417.1865 87.8315,415.5347 Q89.1514,413.8828 91.6582,413.8828 Q92.3638,413.8828 93.0112,414.0322 Q93.6587,414.1816 94.2231,414.4805 L94.2231,417.2031 Q93.5923,416.6221 92.9988,416.3523 Q92.4053,416.0825 91.7744,416.0825 Q90.4297,416.0825 89.7449,417.1492 Q89.0601,418.2158 89.0601,420.3159 Q89.0601,422.4077 89.7449,423.4744 Q90.4297,424.541 91.7744,424.541 Q92.4053,424.541 92.9988,424.2712 Q93.5923,424.0015 94.2231,423.4204 Z " fill="#000000"/><text fill="#000000" font-family="sans-serif" font-size="14" lengthAdjust="spacing" textLength="31" x="112.25" y="425.291">User</text><line style="stroke:#181818;stroke-width:0.5;" x1="8" x2="215" y1="436" y2="436"/><rect fill="none" height="6" style="stroke:#C82930;stroke-width:1.0;" width="6" x="15" y="446.7441"/><text fill="#000000" font-family="sans-serif" font-size="14" lengthAdjust="spacing" textLength="109" x="27" y="453.5352">id: AutoNumber</text><rect fill="none" height="6" style="stroke:#C82930;stroke-width:1.0;" width="6" x="15" y="463.2324"/><text fill="#000000" font-family="sans-serif" font-size="14" lengthAdjust="spacing" textLength="87" x="27" y="470.0234">name: String</text><rect fill="none" height="6" style="stroke:#C82930;stroke-width:1.0;" width="6" x="15" y="479.7207"/><text fill="#000000" font-family="sans-serif" font-size="14" lengthAdjust="spacing" textLength="136" x="27" y="486.5117">displayName: String</text><rect fill="none" height="6" style="stroke:#C82930;stroke-width:1.0;" width="6" x="15" y="496.209"/><text fill="#000000" font-family="sans-serif" font-size="14" lengthAdjust="spacing" textLength="82" x="27" y="503">email: Email</text><rect fill="none" height="6" style="stroke:#C82930;stroke-width:1.0;" width="6" x="15" y="512.6973"/><text fill="#000000" font-family="sans-serif" font-size="14" lengthAdjust="spacing" textLength="183" x="27" y="519.4883">password: EncryptedString</text><rect fill="none" height="6" style="stroke:#C82930;stroke-width:1.0;" width="6" x="15" y="529.1855"/><text fill="#000000" font-family="sans-serif" font-size="14" lengthAdjust="spacing" textLength="156" x="27" y="535.9766">createdOn: TimeStamp</text><rect fill="none" height="6" style="stroke:#C82930;stroke-width:1.0;" width="6" x="15" y="545.6738"/><text fill="#000000" font-family="sans-serif" font-size="14" lengthAdjust="spacing" textLength="140" x="27" y="552.4648">TimeZone:TimeZone</text><line style="stroke:#181818;stroke-width:0.5;" x1="8" x2="215" y1="559.418" y2="559.418"/></g><!--MD5=[9bc2086a53d0681dfc2627ec643a14f6]
class TimeZone--><g id="elem_TimeZone"><rect codeLine="14" fill="#F1F1F1" height="113.9531" id="TimeZone" rx="2.5" ry="2.5" style="stroke:#181818;stroke-width:0.5;" width="100" x="325.5" y="627"/><ellipse cx="340.5" cy="643" fill="#EB937F" rx="11" ry="11" style="stroke:#181818;stroke-width:1.0;"/><path d="M344.1143,649.5 L336.3945,649.5 L336.3945,637.1069 L344.1143,637.1069 L344.1143,639.2651 L338.8433,639.2651 L338.8433,641.938 L343.6162,641.938 L343.6162,644.0962 L338.8433,644.0962 L338.8433,647.3418 L344.1143,647.3418 Z " fill="#000000"/><text fill="#000000" font-family="sans-serif" font-size="14" lengthAdjust="spacing" textLength="68" x="354.5" y="648.291">TimeZone</text><line style="stroke:#181818;stroke-width:0.5;" x1="326.5" x2="424.5" y1="659" y2="659"/><text fill="#000000" font-family="sans-serif" font-size="14" lengthAdjust="spacing" textLength="29" x="331.5" y="676.5352">UTC</text><text fill="#000000" font-family="sans-serif" font-size="14" lengthAdjust="spacing" textLength="21" x="331.5" y="693.0234">IST</text><text fill="#000000" font-family="sans-serif" font-size="14" lengthAdjust="spacing" textLength="25" x="331.5" y="709.5117">PST</text><text fill="#000000" font-family="sans-serif" font-size="14" lengthAdjust="spacing" textLength="12" x="331.5" y="726">...</text><line style="stroke:#181818;stroke-width:0.5;" x1="326.5" x2="424.5" y1="732.9531" y2="732.9531"/></g><!--MD5=[ac13618b1a974308c1f12eb6c57723dc]
class Event--><g id="elem_Event"><rect codeLine="21" fill="#F1F1F1" height="163.418" id="Event" rx="2.5" ry="2.5" style="stroke:#181818;stroke-width:0.5;" width="229" x="282" y="7"/><ellipse cx="373.75" cy="23" fill="#ADD1B2" rx="11" ry="11" style="stroke:#181818;stroke-width:1.0;"/><path d="M376.2231,29.1431 Q375.6421,29.4419 375.0029,29.5913 Q374.3638,29.7407 373.6582,29.7407 Q371.1514,29.7407 369.8315,28.0889 Q368.5117,26.437 368.5117,23.3159 Q368.5117,20.1865 369.8315,18.5347 Q371.1514,16.8828 373.6582,16.8828 Q374.3638,16.8828 375.0112,17.0322 Q375.6587,17.1816 376.2231,17.4805 L376.2231,20.2031 Q375.5923,19.6221 374.9988,19.3523 Q374.4053,19.0825 373.7744,19.0825 Q372.4297,19.0825 371.7449,20.1492 Q371.0601,21.2158 371.0601,23.3159 Q371.0601,25.4077 371.7449,26.4744 Q372.4297,27.541 373.7744,27.541 Q374.4053,27.541 374.9988,27.2712 Q375.5923,27.0015 376.2231,26.4204 Z " fill="#000000"/><text fill="#000000" font-family="sans-serif" font-size="14" lengthAdjust="spacing" textLength="37" x="394.25" y="28.291">Event</text><line style="stroke:#181818;stroke-width:0.5;" x1="283" x2="510" y1="39" y2="39"/><rect fill="none" height="6" style="stroke:#C82930;stroke-width:1.0;" width="6" x="290" y="49.7441"/><text fill="#000000" font-family="sans-serif" font-size="14" lengthAdjust="spacing" textLength="109" x="302" y="56.5352">id: AutoNumber</text><rect fill="none" height="6" style="stroke:#C82930;stroke-width:1.0;" width="6" x="290" y="66.2324"/><text fill="#000000" font-family="sans-serif" font-size="14" lengthAdjust="spacing" textLength="75" x="302" y="73.0234">title: String</text><rect fill="none" height="6" style="stroke:#C82930;stroke-width:1.0;" width="6" x="290" y="82.7207"/><text fill="#000000" font-family="sans-serif" font-size="14" lengthAdjust="spacing" textLength="126" x="302" y="89.5117">description: String</text><rect fill="none" height="6" style="stroke:#C82930;stroke-width:1.0;" width="6" x="290" y="99.209"/><text fill="#000000" font-family="sans-serif" font-size="14" lengthAdjust="spacing" textLength="203" x="302" y="106">participants:List&lt;Participant&gt;</text><rect fill="none" height="6" style="stroke:#C82930;stroke-width:1.0;" width="6" x="290" y="115.6973"/><text fill="#000000" font-family="sans-serif" font-size="14" lengthAdjust="spacing" textLength="156" x="302" y="122.4883">createdOn: TimeStamp</text><rect fill="none" height="6" style="stroke:#C82930;stroke-width:1.0;" width="6" x="290" y="132.1855"/><text fill="#000000" font-family="sans-serif" font-size="14" lengthAdjust="spacing" textLength="151" x="302" y="138.9766">StartTime: TimeStamp</text><rect fill="none" height="6" style="stroke:#C82930;stroke-width:1.0;" width="6" x="290" y="148.6738"/><text fill="#000000" font-family="sans-serif" font-size="14" lengthAdjust="spacing" textLength="145" x="302" y="155.4648">EndTime: TimeStamp</text><line style="stroke:#181818;stroke-width:0.5;" x1="283" x2="510" y1="162.418" y2="162.418"/></g><!--MD5=[18cd6eb38326f9f2c806bbfa3ab73f22]
class ParticipantType--><g id="elem_ParticipantType"><rect codeLine="31" fill="#F1F1F1" height="80.9766" id="ParticipantType" rx="2.5" ry="2.5" style="stroke:#181818;stroke-width:0.5;" width="138" x="251.5" y="445"/><ellipse cx="266.5" cy="461" fill="#EB937F" rx="11" ry="11" style="stroke:#181818;stroke-width:1.0;"/><path d="M270.1143,467.5 L262.3945,467.5 L262.3945,455.1069 L270.1143,455.1069 L270.1143,457.2651 L264.8433,457.2651 L264.8433,459.938 L269.6162,459.938 L269.6162,462.0962 L264.8433,462.0962 L264.8433,465.3418 L270.1143,465.3418 Z " fill="#000000"/><text fill="#000000" font-family="sans-serif" font-size="14" lengthAdjust="spacing" textLength="106" x="280.5" y="466.291">ParticipantType</text><line style="stroke:#181818;stroke-width:0.5;" x1="252.5" x2="388.5" y1="477" y2="477"/><text fill="#000000" font-family="sans-serif" font-size="14" lengthAdjust="spacing" textLength="39" x="257.5" y="494.5352">USER,</text><text fill="#000000" font-family="sans-serif" font-size="14" lengthAdjust="spacing" textLength="43" x="257.5" y="511.0234">ROOM</text><line style="stroke:#181818;stroke-width:0.5;" x1="252.5" x2="388.5" y1="517.9766" y2="517.9766"/></g><!--MD5=[62ba8ad8b61caf20139235a169a8c31d]
class Response--><g id="elem_Response"><rect codeLine="37" fill="#F1F1F1" height="97.4648" id="Response" rx="2.5" ry="2.5" style="stroke:#181818;stroke-width:0.5;" width="98" x="424.5" y="437"/><ellipse cx="439.5" cy="453" fill="#EB937F" rx="11" ry="11" style="stroke:#181818;stroke-width:1.0;"/><path d="M443.1143,459.5 L435.3945,459.5 L435.3945,447.1069 L443.1143,447.1069 L443.1143,449.2651 L437.8433,449.2651 L437.8433,451.938 L442.6162,451.938 L442.6162,454.0962 L437.8433,454.0962 L437.8433,457.3418 L443.1143,457.3418 Z " fill="#000000"/><text fill="#000000" font-family="sans-serif" font-size="14" lengthAdjust="spacing" textLength="66" x="453.5" y="458.291">Response</text><line style="stroke:#181818;stroke-width:0.5;" x1="425.5" x2="521.5" y1="469" y2="469"/><text fill="#000000" font-family="sans-serif" font-size="14" lengthAdjust="spacing" textLength="29" x="430.5" y="486.5352">YES,</text><text fill="#000000" font-family="sans-serif" font-size="14" lengthAdjust="spacing" textLength="25" x="430.5" y="503.0234">NO,</text><text fill="#000000" font-family="sans-serif" font-size="14" lengthAdjust="spacing" textLength="47" x="430.5" y="519.5117">MAYBE</text><line style="stroke:#181818;stroke-width:0.5;" x1="425.5" x2="521.5" y1="526.4648" y2="526.4648"/></g><!--MD5=[b1b35833dc86dffc6b5d0c34dd643d10]
class Participant--><g id="elem_Participant"><rect codeLine="43" fill="#F1F1F1" height="113.9531" id="Participant" rx="2.5" ry="2.5" style="stroke:#181818;stroke-width:0.5;" width="165" x="314" y="230"/><ellipse cx="356" cy="246" fill="#ADD1B2" rx="11" ry="11" style="stroke:#181818;stroke-width:1.0;"/><path d="M358.4731,252.1431 Q357.8921,252.4419 357.2529,252.5913 Q356.6138,252.7407 355.9082,252.7407 Q353.4014,252.7407 352.0815,251.0889 Q350.7617,249.437 350.7617,246.3159 Q350.7617,243.1865 352.0815,241.5347 Q353.4014,239.8828 355.9082,239.8828 Q356.6138,239.8828 357.2612,240.0322 Q357.9087,240.1816 358.4731,240.4805 L358.4731,243.2031 Q357.8423,242.6221 357.2488,242.3523 Q356.6553,242.0825 356.0244,242.0825 Q354.6797,242.0825 353.9949,243.1492 Q353.3101,244.2158 353.3101,246.3159 Q353.3101,248.4077 353.9949,249.4744 Q354.6797,250.541 356.0244,250.541 Q356.6553,250.541 357.2488,250.2712 Q357.8423,250.0015 358.4731,249.4204 Z " fill="#000000"/><text fill="#000000" font-family="sans-serif" font-size="14" lengthAdjust="spacing" textLength="73" x="376" y="251.291">Participant</text><line style="stroke:#181818;stroke-width:0.5;" x1="315" x2="478" y1="262" y2="262"/><rect fill="none" height="6" style="stroke:#C82930;stroke-width:1.0;" width="6" x="322" y="272.7441"/><text fill="#000000" font-family="sans-serif" font-size="14" lengthAdjust="spacing" textLength="139" x="334" y="279.5352">type:ParticipantType</text><rect fill="none" height="6" style="stroke:#C82930;stroke-width:1.0;" width="6" x="322" y="289.2324"/><text fill="#000000" font-family="sans-serif" font-size="14" lengthAdjust="spacing" textLength="132" x="334" y="296.0234">participantId:String</text><rect fill="none" height="6" style="stroke:#C82930;stroke-width:1.0;" width="6" x="322" y="305.7207"/><text fill="#000000" font-family="sans-serif" font-size="14" lengthAdjust="spacing" textLength="133" x="334" y="312.5117">response:Response</text><rect fill="none" height="6" style="stroke:#C82930;stroke-width:1.0;" width="6" x="322" y="322.209"/><text fill="#000000" font-family="sans-serif" font-size="14" lengthAdjust="spacing" textLength="105" x="334" y="329">message:String</text><line style="stroke:#181818;stroke-width:0.5;" x1="315" x2="478" y1="335.9531" y2="335.9531"/></g><!--MD5=[d218c48b946d362ff1ecd879cabebcad]
class Room--><g id="elem_Room"><rect codeLine="60" fill="#F1F1F1" height="113.9531" id="Room" rx="2.5" ry="2.5" style="stroke:#181818;stroke-width:0.5;" width="166" x="557.5" y="428.5"/><ellipse cx="616.25" cy="444.5" fill="#ADD1B2" rx="11" ry="11" style="stroke:#181818;stroke-width:1.0;"/><path d="M618.7231,450.6431 Q618.1421,450.9419 617.5029,451.0913 Q616.8638,451.2407 616.1582,451.2407 Q613.6514,451.2407 612.3315,449.5889 Q611.0117,447.937 611.0117,444.8159 Q611.0117,441.6865 612.3315,440.0347 Q613.6514,438.3828 616.1582,438.3828 Q616.8638,438.3828 617.5112,438.5322 Q618.1587,438.6816 618.7231,438.9805 L618.7231,441.7031 Q618.0923,441.1221 617.4988,440.8523 Q616.9053,440.5825 616.2744,440.5825 Q614.9297,440.5825 614.2449,441.6492 Q613.5601,442.7158 613.5601,444.8159 Q613.5601,446.9077 614.2449,447.9744 Q614.9297,449.041 616.2744,449.041 Q616.9053,449.041 617.4988,448.7712 Q618.0923,448.5015 618.7231,447.9204 Z " fill="#000000"/><text fill="#000000" font-family="sans-serif" font-size="14" lengthAdjust="spacing" textLength="40" x="636.75" y="449.791">Room</text><line style="stroke:#181818;stroke-width:0.5;" x1="558.5" x2="722.5" y1="460.5" y2="460.5"/><rect fill="none" height="6" style="stroke:#C82930;stroke-width:1.0;" width="6" x="565.5" y="471.2441"/><text fill="#000000" font-family="sans-serif" font-size="14" lengthAdjust="spacing" textLength="109" x="577.5" y="478.0352">id: AutoNumber</text><rect fill="none" height="6" style="stroke:#C82930;stroke-width:1.0;" width="6" x="565.5" y="487.7324"/><text fill="#000000" font-family="sans-serif" font-size="14" lengthAdjust="spacing" textLength="87" x="577.5" y="494.5234">name: String</text><rect fill="none" height="6" style="stroke:#C82930;stroke-width:1.0;" width="6" x="565.5" y="504.2207"/><text fill="#000000" font-family="sans-serif" font-size="14" lengthAdjust="spacing" textLength="136" x="577.5" y="511.0117">displayName: String</text><rect fill="none" height="6" style="stroke:#C82930;stroke-width:1.0;" width="6" x="565.5" y="520.709"/><text fill="#000000" font-family="sans-serif" font-size="14" lengthAdjust="spacing" textLength="140" x="577.5" y="527.5">TimeZone:TimeZone</text><line style="stroke:#181818;stroke-width:0.5;" x1="558.5" x2="722.5" y1="534.4531" y2="534.4531"/></g><!--MD5=[27944401209168623ce14195e333767b]
reverse link Participant to User--><g id="link_Participant_User"><path codeLine="51" d="M304.18,351.65 C276.06,371.04 244.96,392.49 216.09,412.39 " fill="none" id="Participant-backto-User" style="stroke:#181818;stroke-width:1.0;"/><polygon fill="#181818" points="315.21,344.05,307.9997,344.1599,305.328,350.8579,312.5383,350.7479,315.21,344.05" style="stroke:#181818;stroke-width:1.0;"/></g><!--MD5=[ba05ddc012e4ba2bedc6eda9ea5310b8]
reverse link Participant to Room--><g id="link_Participant_Room"><path codeLine="52" d="M476.27,352.24 C506.79,376.82 541.32,404.62 570.81,428.38 " fill="none" id="Participant-backto-Room" style="stroke:#181818;stroke-width:1.0;"/><polygon fill="#181818" points="466.09,344.05,468.2552,350.9284,475.4372,351.5753,473.272,344.6969,466.09,344.05" style="stroke:#181818;stroke-width:1.0;"/></g><!--MD5=[fe5045b025e6f0a458a093f43dd740a3]
reverse link Event to Participant--><g id="link_Event_Participant"><path codeLine="53" d="M396.5,183.51 C396.5,199.35 396.5,215.34 396.5,229.83 " fill="none" id="Event-backto-Participant" style="stroke:#181818;stroke-width:1.0;"/><polygon fill="#181818" points="396.5,170.27,392.5,176.27,396.5,182.27,400.5,176.27,396.5,170.27" style="stroke:#181818;stroke-width:1.0;"/><text fill="#000000" font-family="sans-serif" font-size="13" lengthAdjust="spacing" textLength="8" x="388.1313" y="191.063">1</text><text fill="#000000" font-family="sans-serif" font-size="13" lengthAdjust="spacing" textLength="33" x="361.3859" y="219.1354">Many</text></g><!--MD5=[fe71b57aaa8d501774af761f061e80b7]
reverse link Participant to Response--><g id="link_Participant_Response"><path codeLine="54" d="M423.29,356.36 C433.67,382.86 445.31,412.57 454.77,436.7 " fill="none" id="Participant-backto-Response" style="stroke:#181818;stroke-width:1.0;"/><polygon fill="#181818" points="418.46,344.05,416.9255,351.0959,422.8393,355.2224,424.3738,348.1764,418.46,344.05" style="stroke:#181818;stroke-width:1.0;"/></g><!--MD5=[e2a81c7947b9f46de0c4670eff1306c3]
reverse link Participant to ParticipantType--><g id="link_Participant_ParticipantType"><path codeLine="55" d="M370.03,356.44 C358.59,386.02 345.61,419.57 335.81,444.91 " fill="none" id="Participant-backto-ParticipantType" style="stroke:#181818;stroke-width:1.0;"/><polygon fill="#181818" points="374.82,344.05,368.9265,348.2053,370.4955,355.2437,376.389,351.0883,374.82,344.05" style="stroke:#181818;stroke-width:1.0;"/></g><!--MD5=[2febd2dc9fff32d4f5070ca0f6fd1562]
reverse link User to TimeZone--><g id="link_User_TimeZone"><path codeLine="56" d="M226.86,572.36 C261.33,598.02 297.34,624.82 325.28,645.62 " fill="none" id="User-backto-TimeZone" style="stroke:#181818;stroke-width:1.0;"/><polygon fill="#181818" points="216.22,564.44,218.6469,571.2305,225.8484,571.602,223.4215,564.8115,216.22,564.44" style="stroke:#181818;stroke-width:1.0;"/></g><!--MD5=[d45e9f13bdc136b95b669aae81ea205f]
reverse link Room to TimeZone--><g id="link_Room_TimeZone"><path codeLine="57" d="M561.71,550.71 C554.58,556.28 547.44,561.78 540.5,567 C502.59,595.54 458.59,626.36 425.56,649.06 " fill="none" id="Room-backto-TimeZone" style="stroke:#181818;stroke-width:1.0;"/><polygon fill="#181818" points="572.11,542.52,564.9214,543.0892,562.682,549.9438,569.8706,549.3746,572.11,542.52" style="stroke:#181818;stroke-width:1.0;"/></g><!--MD5=[5776e4e4874464c353276bb6514cedb5]
@startuml
'https://plantuml.com/class-diagram
skinparam backgroundcolor transparent
class User {
    -id: AutoNumber
    -name: String
    -displayName: String
    -email: Email
    -password: EncryptedString
    -createdOn: TimeStamp
    -TimeZone:TimeZone
}


enum TimeZone {
    UTC
    IST
    PST
    ...
}

class Event {
    -id: AutoNumber
    -title: String
    -description: String
    -participants:List<Participant>
    -createdOn: TimeStamp
    -StartTime: TimeStamp
    -EndTime: TimeStamp
}

enum ParticipantType {
    USER,
    ROOM

}

enum Response {
    YES,
    NO,
    MAYBE
}

class Participant {
    -type:ParticipantType
    -participantId:String
    -response:Response
    -message:String
}


Participant *- -	User
Participant *- -	Room
Event "1" *- - "Many" Participant
Participant *- -	 Response
Participant *- -	ParticipantType
User *- - TimeZone
Room *- - TimeZone


class Room {
    -id: AutoNumber
    -name: String
    -displayName: String
    -TimeZone:TimeZone
}

@enduml

@startuml
skinparam backgroundcolor transparent
class User {
    -id: AutoNumber
    -name: String
    -displayName: String
    -email: Email
    -password: EncryptedString
    -createdOn: TimeStamp
    -TimeZone:TimeZone
}


enum TimeZone {
    UTC
    IST
    PST
    ...
}

class Event {
    -id: AutoNumber
    -title: String
    -description: String
    -participants:List<Participant>
    -createdOn: TimeStamp
    -StartTime: TimeStamp
    -EndTime: TimeStamp
}

enum ParticipantType {
    USER,
    ROOM

}

enum Response {
    YES,
    NO,
    MAYBE
}

class Participant {
    -type:ParticipantType
    -participantId:String
    -response:Response
    -message:String
}


Participant *- -	User
Participant *- -	Room
Event "1" *- - "Many" Participant
Participant *- -	 Response
Participant *- -	ParticipantType
User *- - TimeZone
Room *- - TimeZone


class Room {
    -id: AutoNumber
    -name: String
    -displayName: String
    -TimeZone:TimeZone
}

@enduml

PlantUML version 1.2022.7(Mon Aug 22 22:31:30 IST 2022)
(GPL source distribution)
Java Runtime: OpenJDK Runtime Environment
JVM: OpenJDK 64-Bit Server VM
Default Encoding: UTF-8
Language: en
Country: IN
--></g></svg>